<svg width="14" height="15" viewBox="0 0 14 15" fill="none" xmlns="http://www.w3.org/2000/svg">
<path d="M10.5 1.66669V2.83335M3.5 1.66669V2.83335" stroke="#222222" stroke-linecap="round" stroke-linejoin="round"/>
<path d="M5.83333 10.4166L5.83333 8.28585C5.83333 8.17402 5.75356 8.08331 5.65517 8.08331H5.25M7.95066 10.4166L8.74078 8.28701C8.77771 8.18744 8.69913 8.08331 8.58708 8.08331H7.58333" stroke="#222222" stroke-linecap="round"/>
<path d="M1.45833 7.64187C1.45833 5.10013 1.45833 3.82925 2.18874 3.03962C2.91914 2.25 4.0947 2.25 6.44583 2.25H7.55417C9.90529 2.25 11.0809 2.25 11.8113 3.03962C12.5417 3.82925 12.5417 5.10013 12.5417 7.64187V7.94147C12.5417 10.4832 12.5417 11.7541 11.8113 12.5437C11.0809 13.3333 9.90529 13.3333 7.55417 13.3333H6.44583C4.0947 13.3333 2.91914 13.3333 2.18874 12.5437C1.45833 11.7541 1.45833 10.4832 1.45833 7.94147V7.64187Z" stroke="#222222" stroke-linecap="round" stroke-linejoin="round"/>
<path d="M3.5 5.16669H10.5" stroke="#222222" stroke-linecap="round" stroke-linejoin="round"/>
</svg>
